<svg data-v-0dd9719b="" version="1.1" xmlns="http://www.w3.org/2000/svg" xmlns:xlink="http://www.w3.org/1999/xlink" width="200" height="200" viewBox="135.87 90.74 67.7551875 67.7551875" preserveAspectRatio="xMidYMid meet" color-interpolation-filters="sRGB" style="margin: auto;" xmlns:svgjs="http://svgjs.dev/svgjs"> <rect data-v-0dd9719b="" x="0" y="0" width="100%" height="100%" fill="#ffffff" fill-opacity="1" class="background"/> <rect data-v-0dd9719b="" x="0" y="0" width="100%" height="100%" fill="url(#watermark)" fill-opacity="1" class="watermarklayer"/> <g data-v-0dd9719b="" fill="#6648fd" class="icon-text-wrapper icon-svg-group iconsvg" transform="translate(140,94.99849891662598)"><g class="iconsvg-imagesvg" transform="translate(0,0)"><g><rect fill="#6648fd" fill-opacity="0" stroke-width="2" x="0" y="0" width="60.00000000000001" height="60.00300015000751" class="image-rect"/> <svg x="0" y="0" width="60.00000000000001" height="60.00300015000751" filtersec="colorsb9433533427" class="image-svg-svg primary" style="overflow: visible;"><svg xmlns="http://www.w3.org/2000/svg" viewBox="0 -0.00957182515412569 169.04141235351562 169.05027770996094"><title>资源 93</title><g><g><path d="M.09 83.87C.09 58.82.22 33.78 0 8.74 0 2.54 2-.17 8.42 0Q24 .48 39.66 0c6.4-.19 8.54 2.44 8.51 8.66-.18 33.69-.09 67.38-.07 101.07 0 11.16 0 11.18 11 11.18h100.4c8.86 0 9.4.54 9.46 9.43.06 10.2-.11 20.39 0 30.59.08 5.43-1.87 8.13-7.73 8.11q-76.8-.15-153.59 0C1.86 169.09 0 166.53 0 161c.18-25.72.1-51.42.09-77.13z" fill="#0582D2"/><path d="M114.62.1c15.28 0 30.57.18 45.84-.1 6.36-.11 8.77 2.47 8.57 8.66-.34 10.84-.36 21.69-.47 32.53-.06 5-2.62 6.95-7.55 6.91-14.84-.13-29.68.19-44.51-.11-6.38-.12-8.61 2.28-8.48 8.57.29 14.39-.13 28.79.16 43.18.13 6.4-2.37 8.61-8.62 8.41-10.84-.34-21.7-.21-32.55-.07-4.78.07-6.89-2-6.88-6.69V7.05c0-5.18 2.45-7 7.36-7C83.18.18 98.9.11 114.62.1z" fill="#03B6F0"/><path d="M144.72 108c-6.2 0-12.39-.07-18.59 0-3.87 0-5.8-1.86-5.82-5.6q-.09-18.25 0-36.51c0-3.37 1.68-5.56 5.2-5.59q18.92-.12 37.84 0c3.88 0 5.52 2.35 5.53 6v35.86c0 4.09-2.08 6-6.23 5.9-5.97-.06-11.95-.06-17.93-.06z" fill="#03B6F0"/></g></g></svg></svg> <!----></g></g> <g transform="translate(30,67.00300216674805)"><g data-gra="path-name" fill-rule="" class="tp-name iconsvg-namesvg"><g transform="scale(1)"><g><path d="" transform="translate(0, 0)"/></g> <!----> <!----> <!----> <!----> <!----> <!----> <!----></g></g> <!----></g></g></svg>